<?xml version="1.0" encoding="UTF-8"?>
<svg id="Livello_1" xmlns="http://www.w3.org/2000/svg" version="1.1" viewBox="0 0 582.18 185.17">
  <!-- Generator: Adobe Illustrator 30.1.0, SVG Export Plug-In . SVG Version: 2.1.1 Build 136)  -->
  <defs>
    <style>
      .st0 {
        fill: none;
        stroke: #e2710d;
        stroke-miterlimit: 10;
        stroke-width: 5.59px;
      }

      .st1 {
        fill: #e2710d;
      }

      .st2 {
        fill: #1d334c;
      }
    </style>
  </defs>
  <g>
    <path class="st2" d="M143.02,121.49V37.59h21.33v83.9s-21.33,0-21.33,0Z"/>
    <path class="st2" d="M246.94,80.74v40.75h-20.62v-35c0-7.55-4.44-12.23-11.39-12.23-7.55,0-12.35,5.39-13.18,13.06v34.16h-20.74V56.89h20.74v10.55c4.55-7.55,11.99-11.39,21.57-11.51,14.26,0,23.61,9.71,23.61,24.81h0Z"/>
    <path class="st2" d="M323.41,115.62c0,18.34-14.14,29.96-35,29.96-11.27,0-21.45-3.6-28.77-8.51l7.19-14.02c5.87,4.08,13.06,6.47,20.02,6.47,9.95,0,15.94-5.27,15.94-13.3v-6.83c-4.2,5.51-10.55,8.63-18.58,8.63-16.3,0-27.81-12.46-27.81-31.28s11.15-30.56,27.33-30.56c8.27-.12,14.74,3,19.06,8.63v-7.91h20.62v58.73h0ZM302.79,87.33c0-9.47-5.39-15.82-13.42-15.82s-13.66,6.47-13.66,15.82,5.51,15.7,13.66,15.7,13.42-6.47,13.42-15.7Z"/>
    <path class="st2" d="M400.11,94.76h-45.43c2.04,7.67,7.55,11.99,15.22,11.99,5.63,0,11.15-2.28,15.46-6.59l10.91,10.67c-6.59,7.19-16.3,11.39-28.17,11.39-21.1,0-34.28-13.18-34.28-32.84s13.66-33.2,33.68-33.2c22.77,0,34.04,14.98,32.6,38.59h.01ZM380.22,83.61c0-7.91-5.03-13.06-12.47-13.06s-12.11,5.27-13.42,13.06h25.89Z"/>
    <path class="st2" d="M461.12,63.24l-7.07,13.42c-7.79-4.2-14.98-6.47-20.38-6.47-3.71,0-6.35,1.44-6.35,4.43,0,8.87,34.04,4.55,33.92,27.09,0,13.3-11.63,20.62-27.21,20.62-10.79,0-21.21-3.12-29-9.11l6.59-13.18c7.31,5.15,15.7,8.03,22.89,8.03,4.08,0,7.07-1.44,7.07-4.43,0-9.47-33.44-4.55-33.32-27.21,0-13.3,11.27-20.5,26.25-20.5,9.35,0,18.7,2.64,26.61,7.31Z"/>
    <path class="st2" d="M514.58,118.01c-4.67,2.76-11.03,4.43-17.26,4.43-12.46,0-21.45-7.07-21.45-20.5v-28.53h-8.99v-13.54h8.99v-17.98h20.62v17.86h16.9v13.66h-16.9v25.29c0,5.03,2.16,7.19,5.99,7.07,2.16,0,4.91-.84,8.03-2.16l4.08,14.38v.02Z"/>
    <path class="st2" d="M582.18,79.3v42.19h-20.26v-7.43c-4.2,5.51-11.03,8.39-19.78,8.39-13.78,0-22.17-8.39-22.17-20.26s8.75-19.42,24.81-19.54h17.02v-.96c0-6.35-4.2-10.19-12.58-10.19-5.39,0-12.46,1.92-19.3,5.39l-5.87-13.66c10.07-4.67,19.18-7.31,29.96-7.31,17.74,0,28.05,8.75,28.17,23.37h0ZM561.8,99.56v-5.75h-13.06c-6.23,0-9.35,2.16-9.35,6.95s3.36,7.67,9.11,7.67c6.47,0,11.99-3.6,13.3-8.87Z"/>
  </g>
  <polygon class="st1" points=".5 86 20.26 72.68 23.97 75.93 5.44 88.87 .5 86"/>
  <polygon class="st1" points="55.92 113.54 55.92 131.9 104.61 103.25 104.69 85.98 55.92 113.54"/>
  <polygon class="st1" points="55.62 139.18 55.62 157.54 104.32 128.89 104.39 111.62 55.62 139.18"/>
  <polygon class="st1" points="56.21 164.82 56.21 183.18 104.91 154.53 104.98 137.26 56.21 164.82"/>
  <polygon class="st1" points="49.07 113.73 49.07 132.1 .37 103.45 .3 86.18 49.07 113.73"/>
  <polygon class="st1" points="49.36 139.37 49.36 157.74 .67 129.09 .59 111.82 49.36 139.37"/>
  <polygon class="st1" points="48.77 165.01 48.77 183.38 .07 154.73 0 137.46 48.77 165.01"/>
  <polygon class="st1" points="104.77 86.03 85.25 72.38 81.48 75.57 99.78 88.82 104.77 86.03"/>
  <path class="st0" d="M71.12,58.41h12.36c2.18,0,2.7,1.26,1.16,2.8l-29.92,29.92c-1.54,1.54-4.06,1.54-5.6,0l-29.92-29.92c-1.54-1.54-1.02-2.8,1.16-2.8h12.36"/>
  <line class="st0" x1="71.02" y1="61.19" x2="71.15" y2="27.19"/>
  <line class="st0" x1="32.62" y1="4.91" x2="32.62" y2="61.19"/>
  <rect class="st1" x="49.81" y="9.29" width="5.26" height="58.73"/>
  <circle class="st1" cx="52.44" cy="5.39" r="5.39"/>
  <circle class="st1" cx="52.44" cy="70.17" r="5.39"/>
  <circle class="st1" cx="71.25" cy="24.1" r="5.39"/>
  <g>
    <path class="st2" d="M149.76,175.96l-1.92,4.37h-2.1l7.75-17.27h2.05l7.72,17.27h-2.15l-1.92-4.37h-9.43ZM154.45,165.3l-3.85,8.76h7.75l-3.9-8.76Z"/>
    <path class="st2" d="M175.83,180.33v-17.27h1.97v17.27h-1.97Z"/>
    <path class="st2" d="M214.78,164.96v15.37h-1.97v-15.37h-5.63v-1.9h13.25v1.9h-5.65Z"/>
    <path class="st2" d="M233.58,170.21c.86-1.9,2.47-2.94,4.66-2.96v1.95c-2.74-.05-4.44,1.65-4.66,4.22v6.91h-1.92v-13h1.92v2.89h0Z"/>
    <path class="st2" d="M258.14,178.33c-1.04,1.41-2.69,2.1-4.76,2.1-2.69,0-4.42-1.73-4.42-3.97s1.8-3.7,4.86-3.73h4.27v-.76c0-1.9-1.18-3.04-3.48-3.04-1.43,0-2.76.54-4.12,1.48l-.81-1.41c1.68-1.11,3.08-1.75,5.3-1.75,3.21,0,4.98,1.7,5.01,4.49l.02,8.59h-1.88v-2h0ZM258.12,175.84v-1.55h-4.05c-2.17,0-3.31.67-3.31,2.1s1.16,2.37,2.99,2.37c2.2,0,3.87-1.11,4.37-2.91h0Z"/>
    <path class="st2" d="M284.32,169.2l-1.06,1.36c-.99-.94-2.29-1.5-3.87-1.5-2.69,0-4.61,1.95-4.61,4.79s1.92,4.81,4.61,4.81c1.7,0,3.11-.59,4.02-1.68l1.11,1.18c-1.16,1.41-2.96,2.25-5.21,2.25-3.77,0-6.44-2.69-6.44-6.56s2.69-6.56,6.44-6.56c2.1-.02,3.83.69,5.01,1.92h0Z"/>
    <path class="st2" d="M299.93,176.61v3.73h-1.92v-18.31h1.92v11.97l6.69-6.66h2.27l-4.86,5.03,5.38,7.97h-2.29l-4.44-6.56-2.74,2.84h-.01Z"/>
    <path class="st2" d="M324.07,163.6c0,.76-.54,1.33-1.26,1.33s-1.26-.57-1.26-1.33.54-1.33,1.26-1.33,1.26.57,1.26,1.33ZM321.88,180.33v-13h1.9v13h-1.9Z"/>
    <path class="st2" d="M350.22,172.31v8.02h-1.92v-7.5c0-2.29-1.38-3.65-3.68-3.65-2.57.02-4.15,1.7-4.37,4.17v6.98h-1.92v-13h1.92v2.86c.91-1.97,2.67-2.91,5.03-2.94,3.11,0,4.93,1.92,4.93,5.06h.01Z"/>
    <path class="st2" d="M375.7,178.97c0,3.8-2.59,6.19-6.54,6.19-2.05-.02-3.75-.69-5.33-1.88l.89-1.48c1.28,1.06,2.64,1.63,4.37,1.65,2.84,0,4.69-1.73,4.69-4.44v-1.97c-.91,1.73-2.59,2.71-4.79,2.71-3.5,0-5.92-2.59-5.92-6.29s2.39-6.19,5.87-6.22c2.22,0,3.9.99,4.84,2.71v-2.64h1.92v11.65h0ZM373.78,173.55c0-2.71-1.85-4.61-4.44-4.61s-4.44,1.92-4.47,4.61c.02,2.67,1.85,4.59,4.47,4.59s4.44-1.92,4.44-4.59Z"/>
    <path class="st2" d="M417.44,164.59l-.84,1.85c-1.55-1.04-3.38-1.46-4.76-1.46-2.22,0-3.68.84-3.68,2.29,0,4.44,9.72,2.12,9.7,8.39,0,2.89-2.54,4.74-6.24,4.74-2.52,0-4.98-1.09-6.61-2.64l.89-1.78c1.6,1.55,3.8,2.44,5.75,2.44,2.49,0,4.05-1.01,4.05-2.67.02-4.54-9.7-2.12-9.7-8.32,0-2.71,2.39-4.47,5.97-4.47,2,0,4.05.64,5.48,1.6v.03Z"/>
    <path class="st2" d="M443.36,173.82c0,3.9-2.74,6.59-6.59,6.59s-6.59-2.69-6.59-6.59,2.74-6.54,6.59-6.54,6.59,2.67,6.59,6.54ZM432.11,173.84c0,2.86,1.95,4.84,4.66,4.84s4.66-1.97,4.66-4.84-1.95-4.81-4.66-4.81-4.66,1.97-4.66,4.81Z"/>
    <path class="st2" d="M458.82,166.04v1.68h3.73v1.58h-3.73v11.03h-1.9v-11.03h-1.68v-1.58h1.68v-1.43c0-2.84,2-4.37,4.17-4.37.99.02,2,.32,2.79.91l-.79,1.55c-.59-.42-1.31-.67-1.97-.67-1.26,0-2.29.81-2.29,2.32h-.01Z"/>
    <path class="st2" d="M481.25,179.44c-.91.62-1.9.96-2.94.99-1.9,0-3.31-1.13-3.31-3.7v-7.43h-1.88v-1.55h1.88v-3.43h1.9v3.43l4.12-.03v1.58h-4.12v7.08c0,1.58.62,2.17,1.73,2.17.67,0,1.36-.22,2.07-.67l.54,1.55h0Z"/>
    <path class="st2" d="M506.26,180.33l-3.82-10.56-3.8,10.56h-2l-4.86-13h2.02l3.85,11,3.78-11h2.02l3.82,11,3.8-11h2l-4.81,13h-2Z"/>
    <path class="st2" d="M532.95,178.33c-1.04,1.41-2.69,2.1-4.76,2.1-2.69,0-4.42-1.73-4.42-3.97s1.8-3.7,4.86-3.73h4.27v-.76c0-1.9-1.18-3.04-3.48-3.04-1.43,0-2.76.54-4.12,1.48l-.81-1.41c1.68-1.11,3.08-1.75,5.3-1.75,3.21,0,4.98,1.7,5.01,4.49l.02,8.59h-1.88v-2h0ZM532.92,175.84v-1.55h-4.05c-2.17,0-3.31.67-3.31,2.1s1.16,2.37,2.99,2.37c2.2,0,3.87-1.11,4.37-2.91h0Z"/>
    <path class="st2" d="M550.9,170.21c.86-1.9,2.47-2.94,4.66-2.96v1.95c-2.74-.05-4.44,1.65-4.66,4.22v6.91h-1.92v-13h1.92v2.89h0Z"/>
    <path class="st2" d="M579.22,174.58h-10.61c.34,2.54,2.2,4.15,4.71,4.15,1.6,0,3.01-.57,4.02-1.63l1.06,1.13c-1.23,1.38-3.06,2.17-5.23,2.17-3.82,0-6.46-2.69-6.46-6.56s2.67-6.56,6.44-6.56c4.2-.02,6.27,2.89,6.07,7.3h0ZM577.49,173c-.12-2.49-1.8-4.07-4.34-4.07s-4.24,1.6-4.54,4.07h8.88Z"/>
  </g>
</svg>